<?xml version="1.0" standalone="no"?><!DOCTYPE svg PUBLIC "-//W3C//DTD SVG 1.1//EN" "http://www.w3.org/Graphics/SVG/1.1/DTD/svg11.dtd"><svg t="1578381781612" class="icon" viewBox="0 0 1024 1024" version="1.1" xmlns="http://www.w3.org/2000/svg" p-id="1783" xmlns:xlink="http://www.w3.org/1999/xlink" width="200" height="200"><defs><style type="text/css"></style></defs><path d="M921.384501 510.971803c-33.959687 0-61.412152 26.531917-61.412152 59.308473 0 185.497055-156.136086 336.308044-347.998507 336.308044-191.929827 0-347.999513-150.81099-347.999513-336.308044 0-185.358218 156.069686-336.232589 347.999513-336.232589l0 0 0 98.922238 245.662694-158.306166L511.974848 16.433048l0 98.888032c-259.584606 0-470.825829 204.149479-470.825829 454.959195 0 250.915353 211.241223 455.064832 470.825829 455.064832S982.800678 821.195628 982.800678 570.280275C982.800678 537.50372 955.344188 510.971803 921.384501 510.971803L921.384501 510.971803 921.384501 510.971803zM921.384501 510.971803" fill="#1296db" p-id="1784"></path></svg>